<mxfile host="app.diagrams.net" modified="2022-05-23T09:17:54.472Z" agent="5.0 (Windows NT 10.0; Win64; x64) AppleWebKit/537.36 (KHTML, like Gecko) Chrome/100.0.4896.75 Safari/537.36" etag="v9ySrx30QZvnvR0LWOn4" version="18.1.1" type="github">
  <diagram id="CJmtZNZUQu7riZG6ckMO" name="第 1 页">
    <mxGraphModel dx="1422" dy="794" grid="1" gridSize="10" guides="1" tooltips="1" connect="1" arrows="1" fold="1" page="1" pageScale="1" pageWidth="827" pageHeight="1169" math="0" shadow="0">
      <root>
        <mxCell id="0" />
        <mxCell id="1" parent="0" />
        <mxCell id="KosZsacg5SAkSG2wEO6T-3" value="②映射处理器" style="rounded=0;orthogonalLoop=1;jettySize=auto;html=1;fontSize=18;exitX=1;exitY=0.25;exitDx=0;exitDy=0;entryX=0;entryY=0.25;entryDx=0;entryDy=0;" parent="1" target="KosZsacg5SAkSG2wEO6T-2" edge="1" source="KosZsacg5SAkSG2wEO6T-1">
          <mxGeometry x="0.0738" y="7" relative="1" as="geometry">
            <mxPoint x="383.9200000000001" y="286.94000000000005" as="sourcePoint" />
            <mxPoint x="805" y="287" as="targetPoint" />
            <mxPoint as="offset" />
          </mxGeometry>
        </mxCell>
        <mxCell id="KosZsacg5SAkSG2wEO6T-28" value="⑤视图解析" style="edgeStyle=none;rounded=0;orthogonalLoop=1;jettySize=auto;html=1;entryX=0.75;entryY=0;entryDx=0;entryDy=0;labelBackgroundColor=none;fontSize=18;" parent="1" source="KosZsacg5SAkSG2wEO6T-1" target="KosZsacg5SAkSG2wEO6T-26" edge="1">
          <mxGeometry x="-0.05" y="24" relative="1" as="geometry">
            <mxPoint as="offset" />
          </mxGeometry>
        </mxCell>
        <mxCell id="KosZsacg5SAkSG2wEO6T-31" value="⑥视图渲染" style="edgeStyle=none;rounded=0;orthogonalLoop=1;jettySize=auto;html=1;entryX=0.75;entryY=0;entryDx=0;entryDy=0;labelBackgroundColor=none;fontSize=18;" parent="1" source="KosZsacg5SAkSG2wEO6T-1" target="KosZsacg5SAkSG2wEO6T-27" edge="1">
          <mxGeometry x="-0.3752" y="20" relative="1" as="geometry">
            <mxPoint as="offset" />
          </mxGeometry>
        </mxCell>
        <mxCell id="KosZsacg5SAkSG2wEO6T-1" value="DispatcherServlet" style="rounded=0;whiteSpace=wrap;html=1;fontSize=18;fontStyle=0" parent="1" vertex="1">
          <mxGeometry x="200" y="260" width="180" height="95" as="geometry" />
        </mxCell>
        <mxCell id="KosZsacg5SAkSG2wEO6T-13" style="edgeStyle=none;rounded=0;orthogonalLoop=1;jettySize=auto;html=1;labelBackgroundColor=none;fontSize=18;exitX=0.011;exitY=0.867;exitDx=0;exitDy=0;exitPerimeter=0;entryX=1.006;entryY=0.621;entryDx=0;entryDy=0;entryPerimeter=0;" parent="1" source="KosZsacg5SAkSG2wEO6T-2" target="KosZsacg5SAkSG2wEO6T-1" edge="1">
          <mxGeometry relative="1" as="geometry">
            <mxPoint x="390" y="322" as="targetPoint" />
          </mxGeometry>
        </mxCell>
        <mxCell id="KosZsacg5SAkSG2wEO6T-2" value="HandlerMapping" style="rounded=0;whiteSpace=wrap;html=1;fontSize=18;fontStyle=0" parent="1" vertex="1">
          <mxGeometry x="847" y="270" width="180" height="60" as="geometry" />
        </mxCell>
        <mxCell id="KosZsacg5SAkSG2wEO6T-4" value="浏览器" style="rounded=0;whiteSpace=wrap;html=1;fontSize=18;" parent="1" vertex="1">
          <mxGeometry x="37" y="275" width="70" height="60" as="geometry" />
        </mxCell>
        <mxCell id="KosZsacg5SAkSG2wEO6T-7" value="①发送请求" style="endArrow=classic;html=1;rounded=0;fontSize=18;labelBackgroundColor=none;verticalAlign=bottom;" parent="1" edge="1">
          <mxGeometry width="50" height="50" relative="1" as="geometry">
            <mxPoint x="113" y="292" as="sourcePoint" />
            <mxPoint x="193" y="292" as="targetPoint" />
          </mxGeometry>
        </mxCell>
        <mxCell id="KosZsacg5SAkSG2wEO6T-8" value="⑦返回响应" style="endArrow=classic;html=1;rounded=0;labelBackgroundColor=none;fontSize=18;verticalAlign=top;" parent="1" edge="1">
          <mxGeometry width="50" height="50" relative="1" as="geometry">
            <mxPoint x="193" y="316" as="sourcePoint" />
            <mxPoint x="113" y="316" as="targetPoint" />
          </mxGeometry>
        </mxCell>
        <mxCell id="KosZsacg5SAkSG2wEO6T-14" value="&lt;span style=&quot;color: rgb(0, 0, 0); font-family: helvetica; font-size: 18px; font-style: normal; font-weight: 400; letter-spacing: normal; text-indent: 0px; text-transform: none; word-spacing: 0px; background-color: rgb(248, 249, 250); display: inline; float: none;&quot;&gt;HandlerExecutionChain&lt;br style=&quot;font-size: 18px;&quot;&gt;&lt;/span&gt;HandlerInterceptor&lt;br style=&quot;font-size: 18px;&quot;&gt;HandlerInterceptor&lt;br style=&quot;font-size: 18px;&quot;&gt;Handler" style="rounded=0;whiteSpace=wrap;html=1;fontSize=18;align=left;verticalAlign=top;labelPosition=center;verticalLabelPosition=middle;" parent="1" vertex="1">
          <mxGeometry x="556" y="310" width="240" height="90" as="geometry" />
        </mxCell>
        <mxCell id="KosZsacg5SAkSG2wEO6T-23" style="edgeStyle=none;rounded=0;orthogonalLoop=1;jettySize=auto;html=1;entryX=0.75;entryY=1;entryDx=0;entryDy=0;labelBackgroundColor=none;fontSize=18;exitX=-0.017;exitY=0.6;exitDx=0;exitDy=0;exitPerimeter=0;" parent="1" source="KosZsacg5SAkSG2wEO6T-15" target="KosZsacg5SAkSG2wEO6T-1" edge="1">
          <mxGeometry relative="1" as="geometry" />
        </mxCell>
        <mxCell id="KosZsacg5SAkSG2wEO6T-15" value="HandlerAdapter" style="rounded=0;whiteSpace=wrap;html=1;fontSize=18;" parent="1" vertex="1">
          <mxGeometry x="870" y="650" width="127" height="80" as="geometry" />
        </mxCell>
        <mxCell id="KosZsacg5SAkSG2wEO6T-16" value="Handler&lt;br style=&quot;font-size: 18px;&quot;&gt;&lt;font style=&quot;font-size: 18px;&quot;&gt;（如UserController）&lt;/font&gt;" style="rounded=0;whiteSpace=wrap;html=1;fontSize=18;" parent="1" vertex="1">
          <mxGeometry x="867" y="400" width="140" height="60" as="geometry" />
        </mxCell>
        <mxCell id="KosZsacg5SAkSG2wEO6T-17" value="" style="endArrow=classic;html=1;rounded=0;labelBackgroundColor=none;fontSize=18;entryX=0.25;entryY=0;entryDx=0;entryDy=0;horizontal=0;" parent="1" target="KosZsacg5SAkSG2wEO6T-15" edge="1">
          <mxGeometry x="-0.0582" y="-10" width="50" height="50" relative="1" as="geometry">
            <mxPoint x="907" y="461" as="sourcePoint" />
            <mxPoint x="907" y="641" as="targetPoint" />
            <mxPoint as="offset" />
          </mxGeometry>
        </mxCell>
        <mxCell id="KosZsacg5SAkSG2wEO6T-18" value="④调用处理器&lt;br style=&quot;font-size: 18px;&quot;&gt;相应功能处理方法" style="endArrow=classic;html=1;rounded=0;labelBackgroundColor=none;fontSize=18;entryX=0.75;entryY=1;entryDx=0;entryDy=0;horizontal=1;" parent="1" target="KosZsacg5SAkSG2wEO6T-16" edge="1">
          <mxGeometry x="0.0476" y="-45" width="50" height="50" relative="1" as="geometry">
            <mxPoint x="972" y="649" as="sourcePoint" />
            <mxPoint x="972" y="469" as="targetPoint" />
            <mxPoint as="offset" />
          </mxGeometry>
        </mxCell>
        <mxCell id="KosZsacg5SAkSG2wEO6T-20" value="Model &amp;amp; View" style="rounded=0;whiteSpace=wrap;html=1;fontSize=18;horizontal=0;" parent="1" vertex="1">
          <mxGeometry x="867" y="499" width="40" height="120" as="geometry" />
        </mxCell>
        <mxCell id="KosZsacg5SAkSG2wEO6T-22" value="③处理器适配" style="edgeStyle=none;rounded=0;orthogonalLoop=1;jettySize=auto;html=1;entryX=1;entryY=1;entryDx=0;entryDy=0;labelBackgroundColor=none;fontSize=18;endArrow=none;exitX=0;exitY=0.25;exitDx=0;exitDy=0;startArrow=classic;startFill=1;" parent="1" source="KosZsacg5SAkSG2wEO6T-15" target="KosZsacg5SAkSG2wEO6T-1" edge="1">
          <mxGeometry x="0.3698" y="-29" relative="1" as="geometry">
            <mxPoint x="850" y="600" as="sourcePoint" />
            <mxPoint x="615.2377368390473" y="520.4525000000001" as="targetPoint" />
            <mxPoint as="offset" />
          </mxGeometry>
        </mxCell>
        <mxCell id="KosZsacg5SAkSG2wEO6T-24" value="Handler" style="rounded=0;whiteSpace=wrap;html=1;fontSize=18;rotation=30;" parent="1" vertex="1">
          <mxGeometry x="710" y="550" width="78.19" height="40" as="geometry" />
        </mxCell>
        <mxCell id="KosZsacg5SAkSG2wEO6T-25" value="Model &amp;amp; View" style="rounded=0;whiteSpace=wrap;html=1;fontSize=18;horizontal=0;rotation=120;" parent="1" vertex="1">
          <mxGeometry x="600" y="499" width="40" height="120" as="geometry" />
        </mxCell>
        <mxCell id="KosZsacg5SAkSG2wEO6T-29" style="edgeStyle=none;rounded=0;orthogonalLoop=1;jettySize=auto;html=1;entryX=0.444;entryY=0.993;entryDx=0;entryDy=0;entryPerimeter=0;labelBackgroundColor=none;fontSize=18;" parent="1" source="KosZsacg5SAkSG2wEO6T-26" target="KosZsacg5SAkSG2wEO6T-1" edge="1">
          <mxGeometry relative="1" as="geometry" />
        </mxCell>
        <mxCell id="KosZsacg5SAkSG2wEO6T-26" value="ViewResolver" style="rounded=0;whiteSpace=wrap;html=1;fontSize=18;" parent="1" vertex="1">
          <mxGeometry x="340" y="650" width="160" height="60" as="geometry" />
        </mxCell>
        <mxCell id="KosZsacg5SAkSG2wEO6T-33" style="edgeStyle=none;rounded=0;orthogonalLoop=1;jettySize=auto;html=1;labelBackgroundColor=none;fontSize=18;exitX=0.25;exitY=0;exitDx=0;exitDy=0;entryX=0.089;entryY=1.007;entryDx=0;entryDy=0;entryPerimeter=0;" parent="1" source="KosZsacg5SAkSG2wEO6T-27" target="KosZsacg5SAkSG2wEO6T-1" edge="1">
          <mxGeometry relative="1" as="geometry">
            <mxPoint x="220" y="380" as="targetPoint" />
          </mxGeometry>
        </mxCell>
        <mxCell id="KosZsacg5SAkSG2wEO6T-27" value="View" style="rounded=0;whiteSpace=wrap;html=1;fontSize=18;" parent="1" vertex="1">
          <mxGeometry x="90" y="650" width="120" height="60" as="geometry" />
        </mxCell>
        <mxCell id="KosZsacg5SAkSG2wEO6T-30" value="View" style="rounded=0;whiteSpace=wrap;html=1;fontSize=18;rotation=69;" parent="1" vertex="1">
          <mxGeometry x="310" y="520" width="60" height="30" as="geometry" />
        </mxCell>
        <mxCell id="KosZsacg5SAkSG2wEO6T-32" value="Model" style="rounded=0;whiteSpace=wrap;html=1;fontSize=18;rotation=15;" parent="1" vertex="1">
          <mxGeometry x="210" y="539" width="60" height="30" as="geometry" />
        </mxCell>
      </root>
    </mxGraphModel>
  </diagram>
</mxfile>
